HIERARCHY
ROOT hip
{
	OFFSET 0.000000 0.000000 0.000000 
	CHANNELS 6 Xposition Yposition Zposition Xrotation Zrotation Yrotation
	JOINT abdomen
	{
		OFFSET 0.000000 3.402643 0.000000 
		CHANNELS 3 Xrotation Zrotation Yrotation
		JOINT chest
		{
			OFFSET 0.000000 8.438565 -0.680529 
			CHANNELS 3 Xrotation Zrotation Yrotation
			JOINT neck
			{
				OFFSET 0.000000 10.207942 -0.272212 
				CHANNELS 3 Xrotation Zrotation Yrotation
				JOINT head
				{
					OFFSET 0.000000 3.130431 0.000000 
					CHANNELS 3 Xrotation Zrotation Yrotation
					End Site
					{
						OFFSET 0.000000 3.130435 0.000000 
					}
				}
			}
			JOINT lCollar
			{
				OFFSET 3.470700 6.669187 -0.816635 
				CHANNELS 3 Yrotation Zrotation Xrotation
				JOINT lShldr
				{
					OFFSET 3.198488 0.000000 0.000000 
					CHANNELS 3 Zrotation Yrotation Xrotation
					JOINT lForeArm
					{
						OFFSET 10.139888 0.000000 0.000000 
						CHANNELS 3 Yrotation Zrotation Xrotation
						JOINT lHand
						{
							OFFSET 8.370511 0.000000 0.000000 
							CHANNELS 3 Zrotation Yrotation Xrotation
							End Site
							{
								OFFSET 4.083176 0.000000 0.000000 
							}
						}
					}
				}
			}
			JOINT rCollar
			{
				OFFSET -3.470700 6.669187 -0.816635 
				CHANNELS 3 Yrotation Zrotation Xrotation
				JOINT rShldr
				{
					OFFSET -3.198488 0.000000 0.000000 
					CHANNELS 3 Zrotation Yrotation Xrotation
					JOINT rForeArm
					{
						OFFSET -10.139888 0.000000 0.000000 
						CHANNELS 3 Yrotation Zrotation Xrotation
						JOINT rHand
						{
							OFFSET -8.370511 0.000000 0.000000 
							CHANNELS 3 Zrotation Yrotation Xrotation
							End Site
							{
								OFFSET -4.083176 0.000000 0.000000 
							}
						}
					}
				}
			}
		}
	}
	JOINT lThigh
	{
		OFFSET 5.308129 -1.633274 1.361059 
		CHANNELS 3 Xrotation Zrotation Yrotation
		JOINT lShin
		{
			OFFSET -2.041588 -20.007561 0.000000 
			CHANNELS 3 Xrotation Zrotation Yrotation
			JOINT lFoot
			{
				OFFSET 0.000000 -19.190928 -1.224953 
				CHANNELS 3 Xrotation Yrotation Zrotation
				End Site
				{
					OFFSET 0.000000 -2.449906 4.627600 
				}
			}
		}
	}
	JOINT rThigh
	{
		OFFSET -5.308129 -1.633274 1.361059 
		CHANNELS 3 Xrotation Zrotation Yrotation
		JOINT rShin
		{
			OFFSET 2.041588 -20.007561 0.000000 
			CHANNELS 3 Xrotation Zrotation Yrotation
			JOINT rFoot
			{
				OFFSET 0.000000 -19.190928 -1.224953 
				CHANNELS 3 Xrotation Yrotation Zrotation
				End Site
				{
					OFFSET 0.000000 -2.449906 4.627600 
				}
			}
		}
	}
}
MOTION
Frames: 13
Frame Time: 0.016667
33.368721 19.155243 -5.844330 -21.768000 5.035510 11.664500 -7.219450 -0.742115 2.459910 17.285000 0.487486 1.358850 14.106600 6.931550 -3.408180 11.189000 7.388560 -1.542130 2.000000 -2.000000 0.000000 -60.603298 -34.013699 -159.039001 74.131401 -0.252232 0.131556 0.071929 -0.072918 -163.953003 -2.000000 2.000000 0.000000 60.088001 26.378000 -163.826996 -76.895103 0.245848 0.133163 -0.054452 0.004129 -138.395996 -53.594170 18.041958 -3.066782 110.149750 -2.865853 4.385914 -25.788807 -11.924765 -5.777728 -55.251484 -15.931288 4.184963 112.874428 3.233531 -4.426028 -28.991774 -14.255552 -3.344758 
33.428707 19.257582 -5.694661 -20.538200 4.610430 11.566200 -7.055020 -0.593396 2.312460 17.275000 0.867716 1.258850 13.962900 6.505220 -3.339380 11.107400 7.234930 -1.493170 2.000000 -2.000000 0.000000 -60.428001 -33.820202 -159.850006 76.563004 -0.246619 0.133023 0.071892 -0.072845 -163.923996 -2.000000 2.000000 0.000000 59.209099 26.329300 -163.886002 -80.469299 0.237486 0.134837 -0.054456 0.004293 -138.455002 -54.678349 17.405905 -3.707274 109.955894 -2.890384 4.406064 -26.087717 -11.220491 -5.723309 -57.102791 -14.881446 5.456240 111.911613 3.118236 -4.446861 -27.221571 -15.573354 -3.426057 
33.522511 19.329815 -5.483376 -19.157101 4.281280 11.434800 -6.880790 -0.576864 2.191440 17.186899 1.101610 1.175390 13.852000 5.996730 -3.349070 11.034600 7.013210 -1.491130 2.000000 -2.000000 0.000000 -59.959801 -33.879700 -160.250000 78.994698 -0.240949 0.134250 0.072733 -0.074473 -164.578003 -2.000000 2.000000 0.000000 58.271599 26.261299 -164.031998 -83.809097 0.229593 0.135927 -0.054478 0.005059 -138.727997 -55.732456 16.661285 -4.241202 109.989281 -2.938478 4.422687 -26.934452 -10.178418 -5.687436 -58.909603 -14.177629 6.623461 111.137802 3.032765 -4.443123 -25.582336 -16.495762 -3.333876 
33.620697 19.451029 -5.276437 -17.524000 3.977040 11.265300 -6.598900 -0.528030 2.074150 17.303699 1.442980 1.089900 13.647800 6.335190 -3.343300 11.048000 7.216580 -1.483390 2.000000 -2.000000 0.000000 -59.003502 -34.007900 -160.807007 81.797401 -0.234355 0.135365 0.071203 -0.071478 -163.376999 -2.000000 2.000000 0.000000 57.676102 26.145201 -164.501007 -86.728996 0.222650 0.136502 -0.054424 0.002844 -137.936996 -56.852871 15.604738 -4.804195 109.796783 -2.979105 4.450176 -27.689579 -8.878879 -5.502196 -60.495541 -13.739590 7.445642 110.535530 2.979506 -4.481298 -24.960949 -16.517054 -3.318973 
33.746738 19.516296 -5.021194 -15.583600 3.330240 11.162100 -6.550240 -0.457392 2.045890 17.205799 1.530580 1.062770 13.159000 6.247420 -3.213660 10.909400 7.170480 -1.389190 2.000000 -2.000000 0.000000 -58.290600 -34.134300 -160.572006 84.092300 -0.228921 0.136037 0.070408 -0.069857 -162.731995 -2.000000 2.000000 0.000000 57.304501 25.316700 -165.210999 -89.482903 0.216083 0.136719 -0.054402 -0.001148 -136.511993 -58.620773 14.731423 -5.776323 109.871574 -3.050016 4.475099 -28.205185 -8.031595 -5.383088 -62.098877 -13.657474 7.255979 110.431923 3.041676 -4.482873 -25.691948 -15.985163 -3.476959 
33.838634 19.654022 -4.757728 -13.631200 2.913750 10.983600 -6.696540 -0.518083 2.075140 16.756399 1.568810 1.057950 12.726800 6.343740 -3.521310 10.761600 7.163270 -1.536780 2.000000 -2.000000 0.000000 -57.167000 -34.016399 -160.240005 86.455597 -0.223302 0.136501 0.070527 -0.070103 -162.830002 -2.000000 2.000000 0.000000 56.942600 24.352100 -166.130997 -91.914497 0.210608 0.117123 -0.054432 -0.003281 -135.750000 -60.068420 13.925876 -6.318818 109.697845 -3.092453 4.478018 -28.713665 -6.995233 -5.143906 -63.616833 -13.756297 7.162233 110.238464 3.068334 -4.511141 -26.169514 -15.198665 -3.472317 
33.899071 19.853983 -4.460402 -11.504500 2.411550 11.052300 -6.892040 -0.333958 2.028530 16.286501 1.967190 0.995813 12.302500 6.206800 -3.639240 10.623000 7.117050 -1.578930 2.000000 -2.000000 0.000000 -56.326099 -33.615101 -159.860001 89.092300 -0.217015 0.136745 0.071362 -0.071796 -163.503998 -2.000000 2.000000 0.000000 56.844101 22.977600 -167.207993 -94.629303 0.204603 0.116780 -0.054403 -0.001230 -136.481995 -61.727951 12.975628 -7.043402 109.358124 -3.133433 4.516492 -28.953913 -6.021721 -4.869690 -65.189644 -13.916955 6.900773 109.716713 3.057420 -4.524094 -26.100801 -14.589381 -3.390941 
33.967373 20.071583 -4.140429 -9.397550 1.445190 11.147600 -7.206670 -0.311170 1.849490 15.680800 1.926600 0.909994 12.139500 5.994370 -3.693960 10.601400 7.000950 -1.584900 2.000000 -2.000000 0.000000 -55.318501 -32.667702 -159.804001 91.943901 -0.209880 0.156208 0.071130 -0.071331 -163.317993 -2.000000 2.000000 0.000000 56.774799 21.748600 -167.856003 -97.031700 0.199308 0.116240 -0.054399 -0.000246 -136.834000 -63.656067 12.599121 -7.930019 109.005234 -3.133513 4.545706 -29.286570 -4.880186 -4.513011 -66.644966 -13.617149 6.282718 109.069626 3.050558 -4.576636 -25.936953 -14.320662 -3.399932 
34.033314 20.272671 -3.746851 -7.150660 1.424390 11.247200 -7.609610 -0.544004 1.666620 14.947900 1.953500 0.794634 12.462200 6.843590 -3.567100 10.883400 7.374590 -1.515030 2.000000 -2.000000 0.000000 -54.291698 -31.886299 -159.737000 94.678299 -0.202902 0.155803 0.070587 -0.070226 -162.878998 -2.000000 2.000000 0.000000 56.490601 20.441500 -168.473999 -99.053101 0.194873 0.115613 -0.054418 -0.002515 -136.022995 -65.047371 11.665771 -7.988347 108.496460 -3.147309 4.584460 -29.515043 -3.708819 -4.121525 -68.347565 -14.105329 6.494641 108.736450 3.059110 -4.588900 -26.223289 -13.564506 -3.379888 
34.093414 20.562166 -3.322190 -5.371600 0.787542 11.234600 -7.845750 -0.515199 1.474960 14.410200 2.019580 0.690898 12.221400 7.192260 -3.616830 10.876500 7.539590 -1.535720 2.000000 -2.000000 0.000000 -53.304199 -30.910601 -160.130005 96.934196 -0.197164 0.155219 0.070456 -0.069956 -162.770996 -2.000000 2.000000 0.000000 55.933498 19.709700 -168.759003 -100.419998 0.191887 0.115101 -0.054416 -0.002379 -136.072006 -66.121407 11.645000 -8.311614 107.964485 -3.130024 4.592814 -29.863226 -2.809597 -3.795996 -69.277222 -13.939191 6.083123 108.137505 3.050969 -4.625632 -26.505718 -13.366878 -3.551321 
34.183735 20.909851 -2.868569 -3.857670 -0.652815 11.342800 -7.758910 -0.456966 1.330900 14.421500 1.572970 0.690382 11.791900 7.079570 -3.812270 10.717600 7.464760 -1.614080 2.000000 -2.000000 0.000000 -52.229698 -30.384600 -160.697006 98.457603 -0.193305 0.154697 0.071033 -0.071135 -163.240005 -2.000000 2.000000 0.000000 55.464901 19.671801 -169.257004 -101.005997 0.190611 0.114860 -0.054399 0.000247 -137.009995 -67.297844 12.215185 -9.278614 107.580093 -3.105142 4.608586 -30.322140 -2.463251 -3.681805 -69.448158 -13.514009 4.670072 107.263237 3.033874 -4.674786 -26.986372 -13.384244 -3.910379 
34.220692 21.481203 -2.475935 -3.320660 -0.828685 11.639900 -7.556200 -0.519310 0.999897 14.421600 1.543850 0.547027 11.863200 6.995630 -3.738830 10.687700 7.445870 -1.590830 2.000000 -2.000000 0.000000 -51.584999 -29.790501 -161.440994 98.731003 -0.192614 0.154592 0.072053 -0.073162 -164.050995 -2.000000 2.000000 0.000000 55.211498 20.179600 -169.246002 -100.556999 0.191589 0.115046 -0.054400 0.000657 -137.156006 -66.490356 11.865616 -9.248231 106.413620 -2.999745 4.618020 -30.528234 -1.945974 -3.453988 -68.431297 -13.784033 3.999886 106.136772 2.930508 -4.688512 -27.339199 -13.373610 -4.289836 
34.232040 22.294306 -2.101288 -2.578130 0.136580 11.898100 -7.429950 -0.580068 0.890800 14.430200 1.912850 0.449132 12.218000 7.156570 -3.884790 10.806400 7.472920 -1.679640 2.000000 -2.000000 0.000000 -51.702301 -30.014799 -161.283997 97.705597 -0.195208 0.154967 0.072809 -0.074618 -164.636993 -2.000000 2.000000 0.000000 55.104301 20.404600 -169.391998 -99.639099 0.193592 0.115403 -0.054399 0.000329 -137.039001 -64.813454 10.641691 -8.088531 104.330902 -2.817988 4.663038 -30.368210 -0.945413 -2.932437 -67.458557 -14.588195 4.301050 104.752831 2.788377 -4.698895 -27.584524 -13.377188 -4.674822 
